<?xml version="1.0" encoding="UTF-8"?>
<svg xmlns="http://www.w3.org/2000/svg" xmlns:xlink="http://www.w3.org/1999/xlink" width="128px" height="128px" viewBox="0 0 128 128" version="1.1">
<g id="surface1">
<path style=" stroke:none;fill-rule:nonzero;fill:rgb(44.313726%,3.529412%,56.862748%);fill-opacity:1;" d="M 103.523438 123.050781 C 119.226562 107.398438 128.023438 86.148438 128 64 C 128.023438 41.851562 119.226562 20.574219 103.523438 4.949219 L 96.574219 11.898438 C 110.425781 25.699219 118.175781 44.449219 118.148438 64 C 118.148438 84.351562 109.898438 102.773438 96.574219 116.101562 Z M 103.523438 123.050781 "/>
<path style=" stroke:none;fill-rule:nonzero;fill:rgb(44.313726%,3.529412%,56.862748%);fill-opacity:1;" d="M 89.625 109.148438 C 101.625 97.175781 108.351562 80.925781 108.324219 64 C 108.351562 47.050781 101.625 30.800781 89.625 18.851562 L 82.675781 25.800781 C 92.824219 35.925781 98.523438 49.675781 98.5 64.023438 C 98.523438 78.351562 92.824219 92.125 82.675781 102.25 Z M 89.625 109.148438 "/>
<path style=" stroke:none;fill-rule:nonzero;fill:rgb(44.313726%,3.529412%,56.862748%);fill-opacity:1;" d="M 75.726562 95.273438 C 84.023438 87 88.699219 75.726562 88.675781 64 C 88.699219 52.273438 84.023438 41.023438 75.726562 32.726562 L 68.773438 39.675781 C 75.226562 46.125 78.851562 54.875 78.851562 64 C 78.875 73.125 75.25 81.875 68.773438 88.324219 Z M 75.726562 95.273438 "/>
<path style=" stroke:none;fill-rule:evenodd;fill:rgb(44.313726%,3.529412%,56.862748%);fill-opacity:1;" d="M 56.175781 20.273438 C 57.875 21.101562 58.949219 22.800781 58.949219 24.699219 L 58.949219 103.300781 C 58.949219 106.023438 56.75 108.226562 54.023438 108.199219 L 50.976562 107.125 L 27.75 88.574219 L 4.925781 88.574219 C 2.199219 88.574219 0 86.375 0 83.648438 L 0 44.351562 C 0 41.625 2.199219 39.425781 4.925781 39.425781 L 27.75 39.425781 L 50.976562 20.851562 C 52.449219 19.675781 54.476562 19.449219 56.175781 20.273438 Z M 56.175781 20.273438 "/>
</g>
</svg>
